<?xml version="1.0" encoding="UTF-8"?><svg id="a" xmlns="http://www.w3.org/2000/svg" viewBox="0 0 1257.64 329.39"><defs><style>.b{fill:#fff;}</style></defs><g><path class="b" d="M1185.15,48.33h8.16c7.51,0,9.47,3.92,9.47,14.04v122.46c0,10.12-2.29,14.7-10.12,14.7h-7.51V48.33Zm-53.23,197.89h77.39c31.68,0,48.33-17.63,48.33-55.84V56.82c0-38.86-18.61-53.56-48.66-53.56h-77.07V246.23Z"/><path class="b" d="M1040.29,146.62h7.51c7.51,0,9.14,3.59,9.14,11.76v70.54c0,8.82,1.96,14.37,4.25,17.31h53.23v-1.63c-1.63-3.59-3.27-8.49-3.27-17.63v-80.33c0-17.96-12.08-28.08-21.23-31.68,9.47-4.25,21.23-14.37,21.23-36.9V46.04c0-28.74-16.33-42.78-40.17-42.78h-84.58V246.23h53.88v-99.6Zm0-101.56h7.84c7.51,0,8.82,2.61,8.82,11.43v32.66c0,8.82-2.94,11.76-9.8,11.76h-6.86V45.07Z"/><path class="b" d="M915.62,72.36l-1.92,90.26h-14.69l16.61-90.26Zm46.35,173.86V3.27h-65.08l-62.91,242.96h46.32l7.91-35.79h23.86v35.79h49.89Z"/><path class="b" d="M775.81,72.36l-1.92,90.26h-14.69l16.61-90.26Zm46.35,173.86V3.27h-65.08l-62.91,242.96h46.32l7.91-35.79h23.86v35.79h49.89Z"/><path class="b" d="M600.26,249.49c21.88,0,33.64-15.35,39.84-25.8,2.61,5.22,5.88,17.63,6.53,22.53h34.94V99.93h-66.62v44.74h15.02v45.07c0,9.14-3.59,13.72-11.1,13.72s-10.78-4.57-10.78-14.04V59.11c0-8.49,2.94-12.74,9.14-12.74,7.84,0,9.8,4.9,9.8,12.74v27.43h52.25v-28.08C679.29,29.06,668.19,0,620.83,0h-9.14C567.28,0,552.26,29.06,552.26,61.72V194.3c0,29.72,15.02,55.19,45.39,55.19h2.61Z"/><path class="b" d="M480.52,80.13l-1.92,82.5h-14.69l16.61-82.5Zm46.35,166.09V3.27h-65.08l-62.91,242.96h46.32l7.91-35.79h23.86v35.79h49.89Z"/><path class="b" d="M340.71,80.13l-1.92,82.5h-14.69l16.61-82.5Zm46.35,166.09V3.27h-65.08l-62.91,242.96h46.32l7.91-35.79h23.86v35.79h49.89Z"/><polygon class="b" points="150.43 3.27 150.43 246.23 248.4 246.23 248.4 194.63 204.31 194.63 204.31 3.27 150.43 3.27"/><path class="b" d="M61.72,44.74c7.51,0,9.47,3.92,9.47,11.43v28.74c0,9.14-3.59,12.08-9.8,12.08h-7.51V44.74h7.84Zm.98,94.38c7.84,0,10.12,3.59,10.12,12.41v38.53c0,10.45-2.61,13.06-9.14,13.06h-9.8v-64h8.82ZM0,246.23H84.91c29.39,0,44.09-18.61,44.09-56.17v-35.92c0-28.74-15.67-37.88-27.1-41.47,7.84-2.61,22.53-13.72,22.53-36.9v-26.78c0-32.98-15.02-45.72-42.78-45.72H0V246.23Z"/></g><path class="b" d="M1209.61,312.65h17.65c7.27,0,9.8,2.85,9.8,8.37v5.65c0,1.36,.13,2.01,.58,2.53h18.82v-.33c-.45-.84-.91-2.08-.91-5.45v-7.14c0-6.23-3.96-10.12-9.93-11.49,3.63-.84,9.73-3.76,9.73-10.77v-.71c0-7.85-6.23-12.39-20.31-12.39h-43.86v48.28h18.43v-16.55Zm0-19.98h21.15c4.15,0,5.58,1.82,5.58,4.09v.06c0,2.34-1.49,4.15-5.58,4.15h-21.15v-8.31Zm-83.41-11.75v48.28h53.92v-12.07h-35.75v-6.62h34.52v-11.74h-34.52v-6.03h35.23v-11.81h-53.4Zm-47.85,48.28h18.43v-35.1h20.83v-13.17h-60.09v13.17h20.83v35.1Zm-36.3,0h20.18l-25.24-48.28h-24.79l-23.88,48.28h18.69l3.7-7.79h27.58l3.76,7.79Zm-9.67-19.86h-16.03l7.92-16.61,8.11,16.61Zm-104.24-28.42v48.28h53.92v-12.07h-35.75v-6.62h34.52v-11.74h-34.52v-6.03h35.23v-11.81h-53.4Zm-47.85,48.28h18.43v-35.1h20.83v-13.17h-60.09v13.17h20.83v35.1Z"/></svg>