<?xml version="1.0" encoding="UTF-8"?><svg id="Layer_1" xmlns="http://www.w3.org/2000/svg" viewBox="0 0 32 32"><defs><style>.cls-1{fill:#fff;}</style></defs><path class="cls-1" d="M20.8,16c0,2.65-2.15,4.8-4.8,4.8s-4.8-2.15-4.8-4.8c0-.27,.03-.54,.08-.8h-1.68v6.4c0,.44,.36,.8,.8,.8h11.19c.44,0,.8-.36,.8-.8v-6.4h-1.68c.05,.26,.08,.53,.08,.8Zm-4.8,3.2c1.77,0,3.2-1.43,3.2-3.2,0-1.77-1.43-3.2-3.2-3.2s-3.2,1.43-3.2,3.2c0,1.77,1.43,3.2,3.2,3.2Zm3.84-6.56h1.92c.27,0,.48-.21,.48-.48v-1.92c0-.27-.22-.48-.48-.48h-1.92c-.27,0-.48,.22-.48,.48v1.92c0,.26,.22,.48,.48,.48ZM16,.64C7.52,.64,.64,7.52,.64,16c0,8.48,6.88,15.36,15.36,15.36s15.36-6.88,15.36-15.36h0C31.36,7.52,24.48,.64,16,.64Zm8,21.58c0,.98-.8,1.78-1.78,1.78H9.78c-.98,0-1.78-.8-1.78-1.78V9.78c0-.98,.8-1.78,1.78-1.78h12.44c.98,0,1.78,.8,1.78,1.78v12.44Z"/></svg>